<svg xmlns="http://www.w3.org/2000/svg" width="50" height="50">
    <path fill="#FFF" fill-rule="evenodd" d="M50 41.667v1.666h-6.667V45h-1.666v-1.667h-8.334V45h-1.666v-1.667h-8.334V45h-1.666v-1.667h-8.334V45h-1.666v-1.667H2.5a.833.833 0 0 1-.833-.833v-9.167H0v-1.666h1.667v-8.334H0v-1.666h1.667v-8.334H0v-1.666h1.667V3.333H0V1.667h1.667V0h1.666v24.783l6.892-6.266A2.432 2.432 0 0 1 10 17.5a2.5 2.5 0 0 1 2.5-2.5 2.448 2.448 0 0 1 1.542.55l5.725-6.442a2.498 2.498 0 0 1 1.916-4.124A2.5 2.5 0 0 1 24.167 7.5c.004.075.004.15 0 .225l6.058 2.033A2.5 2.5 0 0 1 34.167 9L40 5.35A2.555 2.555 0 0 1 40 5a2.5 2.5 0 1 1 .833 1.833L35 10.483a2.5 2.5 0 0 1-4.883.984L23.45 9.25a2.502 2.502 0 0 1-1.783.75 2.513 2.513 0 0 1-.425 0l-6.292 7.034c.034.152.05.309.05.466a2.5 2.5 0 0 1-2.5 2.5 2.544 2.544 0 0 1-1.125-.3l-8.042 7.308v9.167l6.717-7.383a2.082 2.082 0 0 1-.05-.459 2.5 2.5 0 0 1 5 0c.013.128.013.256 0 .384l5.408 4.091a2.5 2.5 0 0 1 2.092-1.141c.564.003 1.11.197 1.55.55l6.233-6.926A2.445 2.445 0 0 1 30 24.167a2.5 2.5 0 1 1 5 0c.012.141.012.283 0 .424l6.367 5.692A2.51 2.51 0 0 1 42.5 30a2.5 2.5 0 1 1-2.5 2.5c.003-.347.076-.691.217-1.008l-6.109-5.425a2.502 2.502 0 0 1-1.608.6 2.636 2.636 0 0 1-1.017-.217l-6.533 7.258c.034.151.05.305.05.458a2.5 2.5 0 0 1-4.942.45L14.167 30.2a2.451 2.451 0 0 1-3.217.075l-7.617 8.383v3.009H50zM42.5 5.833a.833.833 0 1 0 0-1.666.833.833 0 0 0 0 1.666zm-10 5.834a.834.834 0 1 0-.002-1.668.834.834 0 0 0 .002 1.668zM21.667 8.333a.833.833 0 1 0 0-1.666.833.833 0 0 0 0 1.666zm-9.167 10a.833.833 0 1 0 0-1.666.833.833 0 0 0 0 1.666zm30 15a.833.833 0 1 0 0-1.666.833.833 0 0 0 0 1.666zM32.5 25a.833.833 0 1 0 0-1.666.833.833 0 0 0 0 1.666zm-10 10a.833.833 0 1 0 0-1.667.833.833 0 0 0 0 1.667zm-10-5.833a.833.833 0 1 0 0-1.667.833.833 0 0 0 0 1.667zM17.5 50h-1.667v-1.667H17.5V50zm3.333 0h-1.666v-1.667h1.666V50zm3.334 0H22.5v-1.667h1.667V50zm3.333 0h-1.667v-1.667H27.5V50zm3.333 0h-1.666v-1.667h1.666V50zm3.334 0H32.5v-1.667h1.667V50z"/>
</svg>
