<svg xmlns="http://www.w3.org/2000/svg" width="98" height="87">
    <path fill="#0674B9" fill-rule="evenodd" d="M50.253 86.529a1.899 1.899 0 0 1-2.506 0C20.673 62.917 0 46.388 0 26.757 0 12.224 10.124 0 24.644 0 32.229 0 39.15 2.959 44.66 8.557A34.109 34.109 0 0 1 49 13.992a34.052 34.052 0 0 1 4.34-5.435C58.85 2.959 65.771 0 73.356 0c6.937 0 13.273 2.846 17.841 8.012C95.584 12.974 98 19.631 98 26.757c0 19.604-20.608 36.104-47.747 59.772zM73.357 3.853c-6.59 0-12.377 2.462-17.202 7.32-3.676 3.7-5.392 7.476-5.408 7.513a1.916 1.916 0 0 1-1.746 1.137h-.004a1.912 1.912 0 0 1-1.743-1.137c-.017-.037-1.732-3.814-5.409-7.513-4.825-4.858-10.613-7.32-17.201-7.32-11.867 0-20.816 9.846-20.816 22.904 0 17.515 19.606 33.505 45.172 55.769 24.272-21.137 45.172-37.859 45.172-55.769 0-13.058-8.949-22.904-20.815-22.904zm7.865 43.9a1.906 1.906 0 0 1-2.691.302 1.935 1.935 0 0 1-.3-2.707c5.652-7.118 8.285-13.025 8.285-18.591 0-2.833-.696-5.729-1.96-8.153a1.932 1.932 0 0 1 .807-2.601 1.91 1.91 0 0 1 2.584.812c1.568 3.009 2.397 6.447 2.397 9.942 0 6.487-2.899 13.159-9.122 20.996zm.03-33.948a1.92 1.92 0 0 1-1.914-1.926 1.92 1.92 0 0 1 1.914-1.926 1.92 1.92 0 0 1 1.914 1.926 1.921 1.921 0 0 1-1.914 1.926zM67.375 52.329H56.656v10.787a1.92 1.92 0 0 1-1.914 1.926H43.258a1.92 1.92 0 0 1-1.914-1.926V52.329H30.625a1.92 1.92 0 0 1-1.914-1.926V38.846a1.92 1.92 0 0 1 1.914-1.927h10.719V26.133a1.92 1.92 0 0 1 1.914-1.926h11.484a1.92 1.92 0 0 1 1.914 1.926v10.786h10.719a1.92 1.92 0 0 1 1.914 1.927v11.557a1.92 1.92 0 0 1-1.914 1.926zm-1.914-11.557H54.742a1.92 1.92 0 0 1-1.914-1.927V28.059h-7.656v10.786a1.92 1.92 0 0 1-1.914 1.927H32.539v7.704h10.719a1.92 1.92 0 0 1 1.914 1.926v10.787h7.656V50.402a1.92 1.92 0 0 1 1.914-1.926h10.719v-7.704z"/>
</svg>
