<svg xmlns="http://www.w3.org/2000/svg" width="83" height="60">
    <path fill="#FFF" fill-rule="evenodd" d="M76.516 60H6.484C2.909 60 0 57.075 0 53.478V6.522C0 2.926 2.909 0 6.484 0h70.032C80.091 0 83 2.926 83 6.522v46.956C83 57.075 80.091 60 76.516 60zM2.594 53.478c0 2.158 1.745 3.913 3.89 3.913h12.969V10.435H2.594v43.043zm77.812-43.043h-2.593a1.3 1.3 0 0 1-1.297-1.304 1.3 1.3 0 0 1 1.297-1.305h2.593V6.522c0-2.158-1.745-3.913-3.89-3.913H6.484c-2.145 0-3.89 1.755-3.89 3.913v1.304h70.031c.716 0 1.297.584 1.297 1.305a1.3 1.3 0 0 1-1.297 1.304H22.047v46.956h54.469c2.145 0 3.89-1.755 3.89-3.913V10.435zm-6.478 32.609a1.302 1.302 0 0 1-1.297-1.305V31.121l-4.054 7.338a1.292 1.292 0 0 1-2.267 0l-4.054-7.338v10.618c0 .72-.58 1.305-1.297 1.305a1.3 1.3 0 0 1-1.296-1.305V26.087a1.294 1.294 0 1 1 2.43-.633l5.351 9.686 5.351-9.686a1.295 1.295 0 0 1 2.43.633v15.652c0 .72-.581 1.305-1.297 1.305zm-20.753-5.761l3.514 3.534a1.31 1.31 0 0 1 0 1.845 1.291 1.291 0 0 1-1.834 0l-5.188-5.218a1.31 1.31 0 0 1-.281-1.421 1.297 1.297 0 0 1 1.198-.806c2.146 0 3.891-1.755 3.891-3.913 0-2.157-1.745-3.912-3.891-3.912h-3.89v14.347c0 .72-.581 1.305-1.297 1.305a1.302 1.302 0 0 1-1.297-1.305V26.217a1.301 1.301 0 0 1 1.291-1.435h5.194c3.575 0 6.484 2.926 6.484 6.522a6.533 6.533 0 0 1-3.894 5.979zm-18.159 3.152c1.732 0 3.36-.679 4.585-1.911a1.294 1.294 0 0 1 1.834 0c.506.51.506 1.336 0 1.846a9.022 9.022 0 0 1-6.419 2.669 9.024 9.024 0 0 1-6.42-2.669 9.102 9.102 0 0 1-2.659-6.457c0-2.439.945-4.732 2.659-6.456a9.052 9.052 0 0 1 12.839 0 1.311 1.311 0 0 1 0 1.845 1.292 1.292 0 0 1-1.834 0 6.422 6.422 0 0 0-4.585-1.91 6.42 6.42 0 0 0-4.585 1.91 6.495 6.495 0 0 0-1.9 4.611c0 1.742.675 3.38 1.9 4.611a6.422 6.422 0 0 0 4.585 1.911zM14.266 6.522c-.341 0-.676-.139-.918-.382a1.319 1.319 0 0 1-.379-.923 1.3 1.3 0 0 1 1.297-1.304c.342 0 .676.138.917.382.242.242.38.58.38.922a1.303 1.303 0 0 1-1.297 1.305zm-3.891 0c-.34 0-.676-.139-.918-.382a1.319 1.319 0 0 1-.379-.923 1.303 1.303 0 0 1 1.297-1.304 1.303 1.303 0 0 1 1.297 1.304c0 .344-.138.68-.379.923a1.31 1.31 0 0 1-.918.382zm-3.891 0a1.303 1.303 0 0 1-.917-2.227c.241-.244.577-.382.917-.382a1.3 1.3 0 0 1 1.297 1.304c0 .344-.138.68-.379.923a1.307 1.307 0 0 1-.918.382zm9.079 19.565H6.484a1.301 1.301 0 0 1-1.297-1.305 1.3 1.3 0 0 1 1.297-1.304h9.079a1.3 1.3 0 0 1 1.296 1.304 1.3 1.3 0 0 1-1.296 1.305zm0-5.218H6.484a1.3 1.3 0 0 1-1.297-1.304 1.3 1.3 0 0 1 1.297-1.304h9.079a1.3 1.3 0 0 1 1.296 1.304 1.3 1.3 0 0 1-1.296 1.304zm0-5.217H6.484a1.3 1.3 0 0 1-1.297-1.304 1.3 1.3 0 0 1 1.297-1.304h9.079a1.3 1.3 0 0 1 1.296 1.304 1.3 1.3 0 0 1-1.296 1.304zM6.484 28.696h5.188A1.3 1.3 0 0 1 12.969 30a1.3 1.3 0 0 1-1.297 1.304H6.484A1.3 1.3 0 0 1 5.187 30a1.3 1.3 0 0 1 1.297-1.304zm0 5.217h5.188a1.3 1.3 0 0 1 1.297 1.304c0 .721-.581 1.305-1.297 1.305H6.484a1.301 1.301 0 0 1-1.297-1.305 1.3 1.3 0 0 1 1.297-1.304zm0 5.217h1.297c.716 0 1.297.585 1.297 1.305a1.3 1.3 0 0 1-1.297 1.304H6.484a1.3 1.3 0 0 1-1.297-1.304c0-.72.581-1.305 1.297-1.305z"/>
</svg>
