<svg xmlns="http://www.w3.org/2000/svg" width="51" height="51">
    <path fill="#FFF" fill-rule="evenodd" d="M46.673 46.501c-2.811 2.81-5.936 4.061-9.686 4.061-2.5 0-5.002-.625-7.187-2.187L10.424 38.063c-1.562-1.252-2.814-1.874-4.063-3.126C2.612 31.187.424 25.875.424 20.562c0-5.311 2.188-10.312 5.937-14.062C10.111 2.751 15.112.563 20.423.563c5.313 0 10.314 2.188 14.376 5.937 1.251 1.25 1.873 2.188 3.125 3.75l10.937 20c3.125 5.313 2.188 11.874-2.188 16.251zm-.626-15L35.11 11.5c-.937-1.25-1.563-2.188-2.5-3.125-3.436-2.812-7.499-4.688-12.187-4.688-4.374 0-8.749 1.876-11.874 5.001-3.125 3.125-5 7.5-5 11.874 0 4.688 1.875 8.751 5 11.876.937.937 1.875 1.563 3.438 2.499l19.687 10.627c1.873 1.248 3.75 1.562 5.624 1.562 2.814 0 5.313-.94 7.187-3.125 3.439-3.439 4.065-8.438 1.562-12.5zm-8.123 12.812a6.247 6.247 0 0 1-6.25-6.25 6.247 6.247 0 0 1 6.25-6.251 6.247 6.247 0 0 1 6.25 6.251 6.247 6.247 0 0 1-6.25 6.25zM29.8 25.563l1.874 4.061-2.188 2.188-4.062-1.873c-.626.311-.937.311-1.563.622l-1.562 4.376h-3.125l-1.563-4.376c-.626 0-.937-.311-1.562-.622l-4.062 1.873-2.188-2.188 1.875-4.061c-.313-.626-.313-.938-.626-1.563l-4.374-1.562v-3.125l4.374-1.563c.313-.626.313-.937.626-1.562l-1.875-4.062 2.188-2.189 4.062 1.876c.625-.313.936-.313 1.562-.626l1.563-4.375h3.125l1.562 4.375c.626.313.937.313 1.563.626l4.062-1.876 2.188 2.189-1.874 4.062c.311.625.311.936.622 1.562l4.377 1.563v3.125L30.422 24c0 .625-.311.937-.622 1.563zm-9.064-9.375c-2.499 0-4.687 2.188-4.687 4.687s2.188 4.688 4.687 4.688 4.688-2.189 4.688-4.688c0-2.499-2.189-4.687-4.688-4.687z"/>
</svg>
