<svg xmlns="http://www.w3.org/2000/svg" width="65" height="69">
    <path fill="#FFF" fill-rule="evenodd" d="M56.143 26.238v-2.653c0-6.349-2.251-12.249-6.33-16.627C45.631 2.464 39.882 0 33.61 0h-2.192c-6.272 0-12.021 2.464-16.203 6.958-4.079 4.378-6.33 10.278-6.33 16.627v2.653C3.934 26.571 0 30.688 0 35.718v4.145c0 5.234 4.268 9.495 9.51 9.495h5.357c.958 0 1.742-.783 1.742-1.74v-19.67c0-.957-.784-1.739-1.742-1.739H12.37v-2.624c0-11.466 8.188-20.106 19.033-20.106h2.193c10.859 0 19.033 8.64 19.033 20.106v2.624h-2.497c-.958 0-1.742.782-1.742 1.739v19.656c0 .957.784 1.74 1.742 1.74h2.439c-.711 9.074-6.969 11.176-9.872 11.655a6.126 6.126 0 0 0-5.822-4.219h-4.356c-3.368 0-6.112 2.74-6.112 6.103 0 3.363 2.744 6.117 6.112 6.117h4.37c2.817 0 5.183-1.914 5.895-4.494 1.423-.203 3.673-.71 5.909-2.015 3.15-1.841 6.881-5.595 7.375-13.162 4.98-.304 8.929-4.435 8.929-9.48v-4.146c.014-5.015-3.905-9.147-8.856-9.465zM13.154 45.865H9.539c-3.325 0-6.026-2.696-6.026-6.016v-4.146c0-3.319 2.701-6.016 6.026-6.016h3.615v16.178zm23.737 19.656h-4.37a2.625 2.625 0 1 1 0-5.248h4.37a2.625 2.625 0 0 1 0 5.248zm24.638-25.672c0 3.32-2.7 6.016-6.025 6.016h-3.615V29.687h3.615c3.325 0 6.025 2.697 6.025 6.016v4.146z"/>
</svg>
