<svg xmlns="http://www.w3.org/2000/svg" width="47" height="50">
    <path fill="#FFF" fill-rule="evenodd" d="M40.595 19.013V17.09c0-4.6-1.627-8.876-4.577-12.048C32.995 1.786 28.838 0 24.303 0h-1.586c-4.535 0-8.692 1.786-11.715 5.042-2.95 3.172-4.577 7.448-4.577 12.048v1.923C2.845 19.254 0 22.237 0 25.883v3.004c0 3.792 3.086 6.88 6.876 6.88h3.874c.693 0 1.26-.568 1.26-1.26V20.252c0-.693-.567-1.261-1.26-1.261H8.944V17.09c0-8.309 5.921-14.569 13.763-14.569h1.585c7.853 0 13.763 6.26 13.763 14.569v1.901h-1.806c-.692 0-1.259.568-1.259 1.261v14.244c0 .693.567 1.26 1.259 1.26h1.764c-.514 6.576-5.039 8.099-7.139 8.446a4.428 4.428 0 0 0-4.209-3.057h-3.15a4.427 4.427 0 0 0-4.419 4.422c0 2.437 1.984 4.433 4.419 4.433h3.16a4.43 4.43 0 0 0 4.262-3.257c1.029-.146 2.656-.514 4.273-1.459 2.278-1.334 4.976-4.055 5.333-9.538a6.886 6.886 0 0 0 6.456-6.87v-3.004a6.86 6.86 0 0 0-6.404-6.859zM9.511 33.235H6.897a4.361 4.361 0 0 1-4.357-4.359v-3.004a4.36 4.36 0 0 1 4.357-4.359h2.614v11.722zm17.164 14.244h-3.16a1.9 1.9 0 0 1 0-3.802h3.16a1.9 1.9 0 1 1 0 3.802zM44.49 28.876a4.36 4.36 0 0 1-4.356 4.359H37.52V21.513h2.614a4.36 4.36 0 0 1 4.356 4.359v3.004z"/>
</svg>
